<mxfile host="app.diagrams.net" modified="2024-03-16T11:11:25.789Z" agent="Mozilla/5.0 (X11; Linux x86_64) AppleWebKit/537.36 (KHTML, like Gecko) Chrome/122.0.0.0 Safari/537.36" etag="dmMhatB5IlqHboDzqxH7" version="23.1.7" type="github">
  <diagram name="第 1 页" id="a0rtQFJB3-dGhp4FlhbC">
    <mxGraphModel dx="1641" dy="475" grid="1" gridSize="10" guides="1" tooltips="1" connect="1" arrows="1" fold="1" page="1" pageScale="1" pageWidth="827" pageHeight="1169" math="0" shadow="0">
      <root>
        <mxCell id="0" />
        <mxCell id="1" parent="0" />
        <mxCell id="D3tRiavoMa9uWJoJIMfx-1" value="" style="whiteSpace=wrap;html=1;aspect=fixed;" vertex="1" parent="1">
          <mxGeometry x="239" y="120" width="400" height="400" as="geometry" />
        </mxCell>
        <mxCell id="D3tRiavoMa9uWJoJIMfx-2" value="" style="rounded=0;whiteSpace=wrap;html=1;" vertex="1" parent="1">
          <mxGeometry x="440" y="120" width="200" height="400" as="geometry" />
        </mxCell>
        <mxCell id="D3tRiavoMa9uWJoJIMfx-4" value="" style="rounded=0;whiteSpace=wrap;html=1;" vertex="1" parent="1">
          <mxGeometry x="440" y="320" width="200" height="200" as="geometry" />
        </mxCell>
        <mxCell id="D3tRiavoMa9uWJoJIMfx-5" value="Panel" style="text;html=1;align=center;verticalAlign=middle;whiteSpace=wrap;rounded=0;" vertex="1" parent="1">
          <mxGeometry x="409" y="530" width="60" height="30" as="geometry" />
        </mxCell>
        <mxCell id="D3tRiavoMa9uWJoJIMfx-35" value="" style="group" vertex="1" connectable="0" parent="1">
          <mxGeometry x="-400" y="120" width="400" height="400" as="geometry" />
        </mxCell>
        <mxCell id="D3tRiavoMa9uWJoJIMfx-11" value="" style="whiteSpace=wrap;html=1;aspect=fixed;" vertex="1" parent="D3tRiavoMa9uWJoJIMfx-35">
          <mxGeometry width="400" height="400" as="geometry" />
        </mxCell>
        <mxCell id="D3tRiavoMa9uWJoJIMfx-12" value="" style="whiteSpace=wrap;html=1;aspect=fixed;" vertex="1" parent="D3tRiavoMa9uWJoJIMfx-35">
          <mxGeometry width="200" height="200" as="geometry" />
        </mxCell>
        <mxCell id="D3tRiavoMa9uWJoJIMfx-13" value="" style="whiteSpace=wrap;html=1;aspect=fixed;" vertex="1" parent="D3tRiavoMa9uWJoJIMfx-35">
          <mxGeometry x="200" y="200" width="200" height="200" as="geometry" />
        </mxCell>
        <mxCell id="D3tRiavoMa9uWJoJIMfx-14" value="" style="whiteSpace=wrap;html=1;aspect=fixed;" vertex="1" parent="D3tRiavoMa9uWJoJIMfx-35">
          <mxGeometry y="200" width="200" height="200" as="geometry" />
        </mxCell>
        <mxCell id="D3tRiavoMa9uWJoJIMfx-15" value="" style="whiteSpace=wrap;html=1;aspect=fixed;" vertex="1" parent="D3tRiavoMa9uWJoJIMfx-35">
          <mxGeometry x="200" width="200" height="200" as="geometry" />
        </mxCell>
        <mxCell id="D3tRiavoMa9uWJoJIMfx-16" value="windows1" style="text;html=1;align=center;verticalAlign=middle;whiteSpace=wrap;rounded=0;" vertex="1" parent="D3tRiavoMa9uWJoJIMfx-35">
          <mxGeometry x="70" y="170" width="60" height="30" as="geometry" />
        </mxCell>
        <mxCell id="D3tRiavoMa9uWJoJIMfx-17" value="windows4" style="text;html=1;align=center;verticalAlign=middle;whiteSpace=wrap;rounded=0;" vertex="1" parent="D3tRiavoMa9uWJoJIMfx-35">
          <mxGeometry x="270" y="370" width="60" height="30" as="geometry" />
        </mxCell>
        <mxCell id="D3tRiavoMa9uWJoJIMfx-18" value="windows3" style="text;html=1;align=center;verticalAlign=middle;whiteSpace=wrap;rounded=0;" vertex="1" parent="D3tRiavoMa9uWJoJIMfx-35">
          <mxGeometry x="70" y="370" width="60" height="30" as="geometry" />
        </mxCell>
        <mxCell id="D3tRiavoMa9uWJoJIMfx-19" value="windows2" style="text;html=1;align=center;verticalAlign=middle;whiteSpace=wrap;rounded=0;" vertex="1" parent="D3tRiavoMa9uWJoJIMfx-35">
          <mxGeometry x="270" y="170" width="60" height="30" as="geometry" />
        </mxCell>
        <mxCell id="D3tRiavoMa9uWJoJIMfx-21" value="左" style="rounded=0;whiteSpace=wrap;html=1;fillColor=#dae8fc;strokeColor=#6c8ebf;" vertex="1" parent="D3tRiavoMa9uWJoJIMfx-35">
          <mxGeometry width="100" height="180" as="geometry" />
        </mxCell>
        <mxCell id="D3tRiavoMa9uWJoJIMfx-22" value="右上" style="rounded=0;whiteSpace=wrap;html=1;fillColor=#ffe6cc;strokeColor=#d79b00;" vertex="1" parent="D3tRiavoMa9uWJoJIMfx-35">
          <mxGeometry x="100" width="100" height="90" as="geometry" />
        </mxCell>
        <mxCell id="D3tRiavoMa9uWJoJIMfx-23" value="右下" style="rounded=0;whiteSpace=wrap;html=1;fillColor=#ffe6cc;strokeColor=#d79b00;" vertex="1" parent="D3tRiavoMa9uWJoJIMfx-35">
          <mxGeometry x="100" y="90" width="100" height="90" as="geometry" />
        </mxCell>
        <mxCell id="D3tRiavoMa9uWJoJIMfx-24" value="上" style="rounded=0;whiteSpace=wrap;html=1;fillColor=#f8cecc;strokeColor=#b85450;" vertex="1" parent="D3tRiavoMa9uWJoJIMfx-35">
          <mxGeometry x="200" width="200" height="90" as="geometry" />
        </mxCell>
        <mxCell id="D3tRiavoMa9uWJoJIMfx-25" value="下" style="rounded=0;whiteSpace=wrap;html=1;fillColor=#f8cecc;strokeColor=#b85450;" vertex="1" parent="D3tRiavoMa9uWJoJIMfx-35">
          <mxGeometry x="200" y="90" width="200" height="90" as="geometry" />
        </mxCell>
        <mxCell id="D3tRiavoMa9uWJoJIMfx-26" value="上" style="rounded=0;whiteSpace=wrap;html=1;fillColor=#f8cecc;strokeColor=#b85450;" vertex="1" parent="D3tRiavoMa9uWJoJIMfx-35">
          <mxGeometry y="200" width="200" height="80" as="geometry" />
        </mxCell>
        <mxCell id="D3tRiavoMa9uWJoJIMfx-27" value="左下" style="rounded=0;whiteSpace=wrap;html=1;fillColor=#dae8fc;strokeColor=#6c8ebf;" vertex="1" parent="D3tRiavoMa9uWJoJIMfx-35">
          <mxGeometry y="280" width="100" height="100" as="geometry" />
        </mxCell>
        <mxCell id="D3tRiavoMa9uWJoJIMfx-28" value="右下(上)" style="rounded=0;whiteSpace=wrap;html=1;fillColor=#e1d5e7;strokeColor=#9673a6;" vertex="1" parent="D3tRiavoMa9uWJoJIMfx-35">
          <mxGeometry x="100" y="280" width="100" height="50" as="geometry" />
        </mxCell>
        <mxCell id="D3tRiavoMa9uWJoJIMfx-29" value="右下(下)" style="rounded=0;whiteSpace=wrap;html=1;fillColor=#e1d5e7;strokeColor=#9673a6;" vertex="1" parent="D3tRiavoMa9uWJoJIMfx-35">
          <mxGeometry x="100" y="330" width="100" height="50" as="geometry" />
        </mxCell>
        <mxCell id="D3tRiavoMa9uWJoJIMfx-30" value="中上" style="rounded=0;whiteSpace=wrap;html=1;fillColor=#d5e8d4;strokeColor=#82b366;" vertex="1" parent="D3tRiavoMa9uWJoJIMfx-35">
          <mxGeometry x="240" y="200" width="130" height="140" as="geometry" />
        </mxCell>
        <mxCell id="D3tRiavoMa9uWJoJIMfx-31" value="下" style="rounded=0;whiteSpace=wrap;html=1;fillColor=#f5f5f5;strokeColor=#666666;fontColor=#333333;" vertex="1" parent="D3tRiavoMa9uWJoJIMfx-35">
          <mxGeometry x="200" y="340" width="200" height="40" as="geometry" />
        </mxCell>
        <mxCell id="D3tRiavoMa9uWJoJIMfx-32" value="左上" style="rounded=0;whiteSpace=wrap;html=1;fillColor=#dae8fc;strokeColor=#6c8ebf;" vertex="1" parent="D3tRiavoMa9uWJoJIMfx-35">
          <mxGeometry x="200" y="200" width="40" height="140" as="geometry" />
        </mxCell>
        <mxCell id="D3tRiavoMa9uWJoJIMfx-33" value="右上" style="rounded=0;whiteSpace=wrap;html=1;fillColor=#ffe6cc;strokeColor=#d79b00;" vertex="1" parent="D3tRiavoMa9uWJoJIMfx-35">
          <mxGeometry x="370" y="200" width="30" height="140" as="geometry" />
        </mxCell>
        <mxCell id="D3tRiavoMa9uWJoJIMfx-36" value="" style="whiteSpace=wrap;html=1;aspect=fixed;" vertex="1" parent="1">
          <mxGeometry x="239" y="120" width="200" height="200" as="geometry" />
        </mxCell>
        <mxCell id="D3tRiavoMa9uWJoJIMfx-38" value="" style="whiteSpace=wrap;html=1;aspect=fixed;" vertex="1" parent="1">
          <mxGeometry x="239" y="320" width="200" height="200" as="geometry" />
        </mxCell>
        <mxCell id="D3tRiavoMa9uWJoJIMfx-39" value="" style="html=1;shadow=0;dashed=0;align=center;verticalAlign=middle;shape=mxgraph.arrows2.arrow;dy=0.67;dx=20;notch=0;" vertex="1" parent="1">
          <mxGeometry x="404" y="170" width="70" height="15" as="geometry" />
        </mxCell>
        <mxCell id="D3tRiavoMa9uWJoJIMfx-43" value="" style="html=1;shadow=0;dashed=0;align=center;verticalAlign=middle;shape=mxgraph.arrows2.twoWayArrow;dy=0.63;dx=27;" vertex="1" parent="1">
          <mxGeometry x="388.5" y="410" width="101" height="20" as="geometry" />
        </mxCell>
        <mxCell id="D3tRiavoMa9uWJoJIMfx-44" value="" style="html=1;shadow=0;dashed=0;align=center;verticalAlign=middle;shape=mxgraph.arrows2.arrow;dy=0.67;dx=20;notch=0;direction=north;" vertex="1" parent="1">
          <mxGeometry x="360" y="285" width="15" height="70" as="geometry" />
        </mxCell>
        <mxCell id="D3tRiavoMa9uWJoJIMfx-45" value="" style="html=1;shadow=0;dashed=0;align=center;verticalAlign=middle;shape=mxgraph.arrows2.arrow;dy=0.67;dx=20;notch=0;direction=south;" vertex="1" parent="1">
          <mxGeometry x="290" y="285" width="15" height="70" as="geometry" />
        </mxCell>
        <mxCell id="D3tRiavoMa9uWJoJIMfx-50" value="" style="html=1;shadow=0;dashed=0;align=center;verticalAlign=middle;shape=mxgraph.arrows2.arrow;dy=0.67;dx=20;notch=0;direction=west;" vertex="1" parent="1">
          <mxGeometry x="399" y="250" width="70" height="15" as="geometry" />
        </mxCell>
        <mxCell id="D3tRiavoMa9uWJoJIMfx-51" value="" style="html=1;shadow=0;dashed=0;align=center;verticalAlign=middle;shape=mxgraph.arrows2.twoWayArrow;dy=0.63;dx=27;direction=south;" vertex="1" parent="1">
          <mxGeometry x="530" y="269.5" width="20" height="101" as="geometry" />
        </mxCell>
      </root>
    </mxGraphModel>
  </diagram>
</mxfile>
